PathFileType	4	(X/Y/Z)	C:/Users/opensim2020/Desktop/walking_exp_matlab/subject06_walking12_straigt_04.trc																																																																																																																																														
DataRate	CameraRate	NumFrames	NumMarkers	Units	OrigDataRate	OrigDataStartFrame	OrigNumFrames																																																																																																																																										
100	100	6	48	mm	100	2924	181																																																																																																																																										
Frame#	Time	LFHD			RFHD			LBHD			RBHD			C7			T10			CLAV			STRN			RBAK			LSHO			LUPA			LELB			LFRM			LWRA			LWRB			LFIN			RSHO			RUPA			RELB			RFRM			RWRA			RWRB			RFIN			LASI			RASI			LPSI			RPSI			LTHI			LKNE			LTIB			LANK			LHEE			LTOE			RTHI			RKNE			RTIB			RANK			RHEE			RTOE			*39			*40			*41			*42			*43			*44			*45			*46			*47		
		X1	Y1	Z1	X2	Y2	Z2	X3	Y3	Z3	X4	Y4	Z4	X5	Y5	Z5	X6	Y6	Z6	X7	Y7	Z7	X8	Y8	Z8	X9	Y9	Z9	X10	Y10	Z10	X11	Y11	Z11	X12	Y12	Z12	X13	Y13	Z13	X14	Y14	Z14	X15	Y15	Z15	X16	Y16	Z16	X17	Y17	Z17	X18	Y18	Z18	X19	Y19	Z19	X20	Y20	Z20	X21	Y21	Z21	X22	Y22	Z22	X23	Y23	Z23	X24	Y24	Z24	X25	Y25	Z25	X26	Y26	Z26	X27	Y27	Z27	X28	Y28	Z28	X29	Y29	Z29	X30	Y30	Z30	X31	Y31	Z31	X32	Y32	Z32	X33	Y33	Z33	X34	Y34	Z34	X35	Y35	Z35	X36	Y36	Z36	X37	Y37	Z37	X38	Y38	Z38	X39	Y39	Z39	X40	Y40	Z40	X41	Y41	Z41	X42	Y42	Z42	X43	Y43	Z43	X44	Y44	Z44	X45	Y45	Z45	X46	Y46	Z46	X47	Y47	Z47	X48	Y48	Z48
																																																																																																																																																	
159	1.58	-1485.84192	1680.29651	-503.15771	-1354.58728	1661.82361	-498.42041	-1495.05554	1616.6842	-373.70782	-1366.49329	1604.40002	-370.01685	-1439.91919	1458.0448	-380.45139	-1433.14514	1128.50574	-362.44247	-1441.28088	1385.51697	-493.47034	-1453.46106	1211.05371	-540.67737	-1361.33691	1284.52454	-317.62524	-1601.84912	1417.22546	-433.9166	-1673.88123	1215.83716	-449.13235	-1686.68188	1103.79822	-460.63406	-1709.55249	975.06555	-536.99402	-1669.81775	902.5752	-644.09369	-1701.82898	868.34918	-590.46417	-1705.56445	817.08295	-664.43365	-1278.42847	1415.14465	-453.35129	-1196.94604	1216.50305	-402.14227	-1193.57397	1093.67432	-398.87613	-1180.54871	972.72388	-398.71838	-1213.3833	827.84711	-442.3493	-1177.29736	834.89069	-385.31052	-1178.57568	753.08026	-409.26849	-1556.32446	967.35925	-529.46606	-1336.62048	978.45728	-551.60712	-1513.92102	995.47607	-375.35544	-1347.16345	1004.41254	-398.35593	-1603.45935	647.19629	-467.42926	-1585.3844	484.55237	-479.01184	-1568.35522	331.42618	-285.10684	-1526.79651	220.01439	-155.95955	-1476.70532	239.3741	-124.77533	-1532.22705	84.94125	-212.35065	-1277.15283	646.10345	-523.12225	-1306.89685	523.10657	-540.05457	-1311.8645	256.69116	-504.11984	-1364.12708	72.43294	-495.64771	-1410.75977	49.0152	-457.76257	-1366.41589	37.93454	-650.7771	-1429.0188	1708.37805	-397.92435	NaN	NaN	NaN	NaN	NaN	NaN	NaN	NaN	NaN	NaN	NaN	NaN	NaN	NaN	NaN	NaN	NaN	NaN	NaN	NaN	NaN	NaN	NaN	NaN
160	1.59	-1485.47852	1680.66052	-512.99677	-1354.19531	1662.26978	-508.35452	-1494.54236	1617.20935	-383.43936	-1365.99524	1604.88953	-379.84308	-1439.31799	1458.66113	-390.03787	-1432.19214	1129.21606	-371.37469	-1440.91016	1385.89014	-503.01144	-1452.8313	1211.41626	-549.73285	-1359.90796	1285.37915	-327.11951	-1601.45679	1417.19006	-443.04733	-1673.04419	1215.31824	-456.72461	-1685.63196	1103.0116	-466.77292	-1708.57678	971.85376	-539.31531	-1669.50757	895.54437	-643.94659	-1701.0498	863.15607	-588.86346	-1705.54175	809.45233	-660.91711	-1277.88025	1415.74658	-463.44757	-1195.78101	1216.68518	-414.27588	-1192.10254	1093.80798	-412.55627	-1179.30042	972.85773	-415.18674	-1212.92188	829.19531	-461.66785	-1176.3219	834.83942	-405.54926	-1177.59509	753.93646	-431.84982	-1555.48535	968.18134	-538.75623	-1335.75769	978.87152	-560.0932	-1513.3092	996.08588	-384.47855	-1346.50793	1005.04242	-406.87646	-1603.26636	648.10889	-481.82181	-1585.19946	485.87036	-496.71072	-1568.56812	331.67328	-304.44797	-1527.39368	219.46533	-175.8251	-1477.0824	237.97267	-144.17328	-1534.09338	86.07842	-235.11887	-1276.83044	645.97253	-529.3598	-1306.51306	522.58362	-544.6781	-1312.07593	256.70682	-504.95776	-1364.46936	72.50126	-495.8273	-1410.87292	49.2445	-457.91281	-1366.37805	37.83848	-651.01343	-1428.52673	1708.86218	-407.67892	NaN	NaN	NaN	NaN	NaN	NaN	NaN	NaN	NaN	NaN	NaN	NaN	NaN	NaN	NaN	NaN	NaN	NaN	NaN	NaN	NaN	NaN	NaN	NaN
161	1.6	-1485.17151	1681.0293	-522.6955	-1353.91956	1662.60535	-518.21106	-1494.13586	1617.68054	-393.16025	-1365.55591	1605.36084	-389.67905	-1438.69983	1459.10352	-399.65952	-1431.18225	1129.80774	-380.30008	-1440.5343	1386.12915	-512.45111	-1452.25903	1211.60974	-558.75018	-1358.39905	1286.1427	-336.4599	-1600.9989	1417.12158	-452.15491	-1672.16919	1214.89905	-464.11826	-1684.49915	1102.4248	-472.78406	-1707.53113	968.73932	-541.27844	-1669.15503	888.71912	-643.31488	-1700.24524	858.3252	-586.73218	-1705.53784	802.19415	-656.7832	-1277.46265	1416.29297	-473.34299	-1194.58386	1216.87219	-426.28323	-1190.61389	1094.0343	-426.13657	-1177.98999	973.20129	-431.65878	-1212.02319	831.20032	-482.25565	-1175.27075	834.99951	-425.90305	-1176.50439	755.06622	-454.68707	-1554.5094	968.9527	-548.05188	-1334.8772	979.16742	-568.73193	-1512.79346	996.6709	-393.48505	-1345.81458	1005.43384	-415.39291	-1603.12866	649.00067	-495.98407	-1584.93579	487.194	-514.26428	-1568.88599	331.28876	-324.10028	-1528.11548	217.80769	-196.46207	-1477.70679	235.32001	-164.17424	-1536.01318	86.66953	-259.19907	-1276.66443	645.68884	-535.37964	-1306.19873	522.10522	-549.19952	-1312.49316	256.7088	-506.07321	-1364.85474	72.67516	-496.18698	-1411.2843	49.46009	-458.05371	-1366.39282	37.66405	-651.07642	-1428.15076	1709.30347	-417.59131	NaN	NaN	NaN	NaN	NaN	NaN	NaN	NaN	NaN	NaN	NaN	NaN	NaN	NaN	NaN	NaN	NaN	NaN	NaN	NaN	NaN	NaN	NaN	NaN
162	1.61	-1485.02771	1681.26428	-532.51385	-1353.72888	1662.91553	-528.1308	-1493.84607	1618.10046	-402.86331	-1365.20471	1605.83044	-399.48648	-1438.41162	1459.54065	-409.01218	-1430.245	1130.29663	-389.17828	-1440.1637	1386.43323	-521.73407	-1451.64954	1211.80444	-567.72876	-1357.30237	1286.84399	-345.70944	-1600.56665	1417.10791	-461.16504	-1671.3197	1214.5343	-471.35385	-1683.41223	1101.95459	-478.74417	-1706.55127	965.97778	-542.92731	-1668.70313	882.11316	-642.03674	-1699.56543	853.90552	-584.12634	-1705.39343	795.33551	-651.98962	-1277.04053	1416.86926	-483.06635	-1193.80078	1217.42847	-438.56415	-1189.08936	1094.28015	-439.46649	-1176.55994	973.66638	-448.15912	-1210.9303	833.43848	-503.03708	-1174.11328	835.48926	-446.45557	-1175.38477	756.7478	-477.76987	-1553.45154	969.69525	-557.41516	-1333.80615	979.28223	-577.07867	-1512.32617	997.11682	-402.48087	-1345.1449	1005.66095	-423.84244	-1603.30896	649.70618	-509.94067	-1584.65344	488.58307	-531.60455	-1569.26697	330.35904	-343.97339	-1528.9447	215.10486	-217.80798	-1478.66003	231.50452	-184.83969	-1537.81702	86.38638	-284.37766	-1276.70923	645.18256	-540.8844	-1305.87805	521.62402	-553.51147	-1312.78601	256.70599	-507.57666	-1365.18091	72.76499	-496.42371	-1411.5835	49.70357	-458.16028	-1366.44788	37.54248	-651.20703	-1427.88	1709.6969	-427.4754	NaN	NaN	NaN	NaN	NaN	NaN	NaN	NaN	NaN	NaN	NaN	NaN	NaN	NaN	NaN	NaN	NaN	NaN	NaN	NaN	NaN	NaN	NaN	NaN
163	1.62	-1484.9928	1681.47058	-542.30597	-1353.66919	1663.21399	-538.05505	-1493.53149	1618.45154	-412.51053	-1364.98828	1606.28821	-409.21652	-1437.79468	1459.89661	-418.45547	-1429.43481	1130.70996	-397.88934	-1439.85156	1386.60828	-531.073	-1451.04041	1211.99255	-576.63159	-1356.29883	1287.43274	-354.88812	-1600.1123	1417.0968	-470.31403	-1670.47937	1214.23474	-478.47137	-1682.31604	1101.60962	-484.52191	-1705.58765	963.47742	-544.24591	-1668.21826	875.90344	-640.51501	-1698.58154	849.87744	-581.18622	-1705.18848	788.84955	-646.72516	-1276.72144	1417.37854	-492.54333	-1192.85242	1217.74426	-450.16098	-1187.6394	1094.62036	-452.81546	-1175.14197	974.35638	-464.72617	-1210.16187	835.961	-523.4845	-1173.0426	836.24884	-467.09192	-1174.1637	758.81769	-500.95108	-1552.30103	970.44427	-566.68756	-1332.64355	979.41174	-585.41925	-1511.96558	997.49335	-411.44308	-1344.75256	1005.65051	-432.51434	-1603.24487	650.91614	-523.82904	-1584.32166	490.13113	-548.74634	-1569.65881	328.84616	-364.18234	-1529.90808	211.36615	-239.90102	-1479.23877	226.64183	-205.9324	-1539.62036	85.37373	-310.5705	-1276.49426	645.04181	-546.67291	-1305.55762	521.19446	-557.98114	-1312.90601	256.68762	-509.49261	-1365.51782	72.76141	-496.59882	-1411.68542	49.80758	-458.19418	-1366.41528	37.52103	-651.31653	-1427.72815	1710.0531	-437.36282	NaN	NaN	NaN	NaN	NaN	NaN	NaN	NaN	NaN	NaN	NaN	NaN	NaN	NaN	NaN	NaN	NaN	NaN	NaN	NaN	NaN	NaN	NaN	NaN
164	1.63	-1485.02832	1681.599	-552.11548	-1353.65161	1663.42725	-547.81775	-1493.49353	1618.79565	-422.21536	-1364.85852	1606.7345	-419.07697	-1437.52148	1460.30127	-427.86935	-1428.70276	1131.00366	-406.73727	-1439.58325	1386.8269	-540.37384	-1450.43469	1212.06104	-585.45074	-1355.38867	1287.85156	-364.08798	-1599.84546	1417.17615	-479.16406	-1669.77661	1213.98743	-485.43555	-1681.27905	1101.33276	-490.16953	-1704.6416	961.27753	-545.45465	-1667.65015	869.97522	-638.28955	-1697.83704	846.27649	-577.94147	-1704.82776	782.82855	-641.06018	-1276.48328	1417.87317	-501.90134	-1191.97534	1218.07385	-461.49628	-1186.11572	1095.08057	-465.9841	-1173.86475	975.14331	-480.93488	-1209.63782	838.6629	-543.36511	-1171.91846	837.36621	-487.79349	-1172.9375	761.2049	-524.32941	-1551.15186	971.18347	-575.97711	-1331.35962	979.36908	-593.5379	-1511.71436	997.75134	-420.42114	-1344.17322	1005.57715	-440.30072	-1603.5127	651.79663	-537.27521	-1583.97375	491.82288	-565.53754	-1570.2074	326.89749	-384.59558	-1530.88281	206.66687	-262.83167	-1480.53076	220.62105	-228.15642	-1541.35327	83.59472	-337.65204	-1276.38647	644.92236	-552.44183	-1305.11389	520.80377	-562.57428	-1312.80481	256.61005	-511.6799	-1365.21191	73.20954	-496.99329	-1411.71204	49.87686	-458.23566	-1366.33081	37.47764	-651.31403	-1427.70752	1710.40784	-447.26599	NaN	NaN	NaN	NaN	NaN	NaN	NaN	NaN	NaN	NaN	NaN	NaN	NaN	NaN	NaN	NaN	NaN	NaN	NaN	NaN	NaN	NaN	NaN	NaN
